<svg width="14" height="14" viewBox="0 0 14 14" fill="none" xmlns="http://www.w3.org/2000/svg">
<path d="M6.70996 8.99316C7.9526 8.99316 8.95996 7.9858 8.95996 6.74316C8.95996 5.50052 7.9526 4.49316 6.70996 4.49316C5.46732 4.49316 4.45996 5.50052 4.45996 6.74316C4.45996 7.9858 5.46732 8.99316 6.70996 8.99316Z" stroke="black" stroke-linecap="round" stroke-linejoin="round"/>
<path d="M10.71 13.4931C10.3314 12.7586 9.75787 12.1425 9.05229 11.7124C8.34671 11.2822 7.53631 11.0547 6.70996 11.0547C5.88361 11.0547 5.07321 11.2822 4.36763 11.7124C3.66205 12.1425 3.08853 12.7586 2.70996 13.4931" stroke="black" stroke-linecap="round" stroke-linejoin="round"/>
<path d="M11.71 10.5527C12.4196 9.62716 12.8561 8.52146 12.9701 7.36072C13.0841 6.19997 12.871 5.0305 12.3549 3.98456C11.8388 2.93862 11.0404 2.05795 10.0499 1.44215C9.05938 0.826354 7.91633 0.5 6.75 0.5C5.58368 0.5 4.44062 0.826354 3.45012 1.44215C2.45961 2.05795 1.66117 2.93862 1.14511 3.98456C0.629045 5.0305 0.415946 6.19997 0.529913 7.36072C0.64388 8.52146 1.08037 9.62716 1.79 10.5527" stroke="black" stroke-linecap="round" stroke-linejoin="round"/>
</svg>
